<svg xmlns="http://www.w3.org/2000/svg" width="402.991" height="121.047" viewBox="0 0 402.991 121.047"><defs>
	<style>
	@font-face {
	font-family: 'Neuzeit Grotesk';
	src: url("../fonts/NeuzeitGro.otf") format("opentype");
}
	.a{
	fill:rgba(40,50,88,0.5);
	}
	.b{
	fill:#ffff;
	font-size:24px;
	font-family: 'Neuzeit Grotesk';
	letter-spacing:0.025em;
	}
	.c{
	fill:#ffd05d;
	}
	.d{
	fill:#fdc453;
	}
	.e{
	fill:#ffd77f;
	}
	.f{
	fill:#695342;
	}
	.g{
	fill:#f06669;
	}</style></defs><g transform="translate(-980 -6186)"><path class="a" d="M366.592,0H36.4A36.4,36.4,0,0,0,0,36.4V84.648a36.4,36.4,0,0,0,36.4,36.4H402.991V36.4A36.4,36.4,0,0,0,366.592,0Z" transform="translate(980 6186)"/><text class="b" transform="translate(1014 6224)"><tspan x="0" y="16">A partir de agora você </tspan><tspan x="0" y="40">receberá nossas promoções!</tspan></text><g transform="translate(364.997 5974.342)"><g transform="translate(971.094 258.658)"><g transform="translate(0 0)"><circle class="c" cx="13.985" cy="13.985" r="13.985" transform="translate(0 19.777) rotate(-45)"/></g><g transform="translate(7.993 7.841)"><path class="d" d="M1038.911,306.451a13.987,13.987,0,0,1-19.1,19.452,13.986,13.986,0,1,0,19.1-19.452Z" transform="translate(-1019.81 -306.451)"/></g><g transform="translate(6.727 6.825)"><path class="e" d="M1013.061,314.685a12.984,12.984,0,0,1,23.276-7.915,12.985,12.985,0,1,0-21.551,14.386A12.923,12.923,0,0,1,1013.061,314.685Z" transform="translate(-1012.095 -300.258)"/></g></g><g transform="translate(984.928 281.297)"><path class="f" d="M1055.409,396.643a5.982,5.982,0,0,0,11.888,0Z" transform="translate(-1055.409 -396.643)"/><path class="g" d="M1066.612,414.584a5.977,5.977,0,0,0,8.071.129l-.055-.129A9.867,9.867,0,0,0,1066.612,414.584Z" transform="translate(-1064.774 -410.913)"/></g><circle class="f" cx="2" cy="2" r="2" transform="translate(985.003 272.658)"/><circle class="f" cx="2" cy="2" r="2" transform="translate(993.003 272.658)"/></g></g></svg>