<svg xmlns="http://www.w3.org/2000/svg" width="298.898" height="590.595" viewBox="0 0 298.898 590.595"><defs><style>.a{fill:#222;}</style></defs><path class="a" d="M-7071.1-6220.4a39.719,39.719,0,0,1-15.569-3.145,39.848,39.848,0,0,1-12.716-8.573,39.884,39.884,0,0,1-8.571-12.712,39.745,39.745,0,0,1-3.143-15.569v-344.7a4,4,0,0,1-3.9-4v-31a4,4,0,0,1,3.9-4v-9a4,4,0,0,1-3.9-4v-31a4,4,0,0,1,3.9-4v-17a4,4,0,0,1-3.9-4v-13a4,4,0,0,1,3.9-4V-6771a39.718,39.718,0,0,1,3.143-15.569,39.944,39.944,0,0,1,8.571-12.717,39.782,39.782,0,0,1,12.716-8.569A39.717,39.717,0,0,1-7071.1-6811h211a39.726,39.726,0,0,1,15.57,3.143,39.8,39.8,0,0,1,12.716,8.569,39.918,39.918,0,0,1,8.573,12.717A39.76,39.76,0,0,1-6820.1-6771v92.9h0a4,4,0,0,1,4,4v52a4,4,0,0,1-4,4h0v357.7a39.786,39.786,0,0,1-3.141,15.569,39.794,39.794,0,0,1-8.573,12.712,39.869,39.869,0,0,1-12.716,8.573,39.727,39.727,0,0,1-15.57,3.145Zm-8.328-574.327a28.912,28.912,0,0,0-9.2,6.2,28.909,28.909,0,0,0-6.2,9.2,28.75,28.75,0,0,0-2.275,11.264v504.78a28.75,28.75,0,0,0,2.275,11.264,28.849,28.849,0,0,0,6.2,9.192,28.784,28.784,0,0,0,9.2,6.2,28.7,28.7,0,0,0,11.258,2.275h202.515a28.733,28.733,0,0,0,11.264-2.275,28.811,28.811,0,0,0,9.2-6.2,28.854,28.854,0,0,0,6.2-9.192,28.781,28.781,0,0,0,2.271-11.264v-504.78a28.781,28.781,0,0,0-2.271-11.264,28.914,28.914,0,0,0-6.2-9.2,28.939,28.939,0,0,0-9.2-6.2,28.8,28.8,0,0,0-11.264-2.271h-32.729a4.13,4.13,0,0,0-3.221,3.9h0v.995a16,16,0,0,1-16,16h-96a16,16,0,0,1-16-16v-1.125h0a3.974,3.974,0,0,0-1.212-2.743,3.988,3.988,0,0,0-1.9-1.03h-35.446A28.77,28.77,0,0,0-7079.429-6794.73Z" transform="translate(7114.999 6810.999)"/></svg>