<svg xmlns="http://www.w3.org/2000/svg" width="114" height="114" viewBox="0 0 114 114"><defs><style>.a,.d{fill:none;}.a{stroke:#eadab4;opacity:0.997;}.b{fill:#eadab4;}.c{stroke:none;}</style></defs><g transform="translate(-499 -4230)"><g class="a" transform="translate(499 4230)"><circle class="c" cx="57" cy="57" r="57"/><circle class="d" cx="57" cy="57" r="56.5"/></g><path class="b" d="M27.12-44.256H25.68v-5.712A25.709,25.709,0,0,0,0-75.648a25.709,25.709,0,0,0-25.68,25.68v5.712h-1.44a5.674,5.674,0,0,0-5.664,5.664v8.736a5.674,5.674,0,0,0,5.664,5.664h1.536a4.949,4.949,0,0,0,4.848,3.84A4.937,4.937,0,0,0-15.792-25.3V-43.344a4.937,4.937,0,0,0-4.944-4.944,5.146,5.146,0,0,0-2.448.624v-2.3A23.169,23.169,0,0,1,0-73.152,23.169,23.169,0,0,1,23.184-49.968v2.3a5.146,5.146,0,0,0-2.448-.624,4.937,4.937,0,0,0-4.944,4.944V-25.3a4.937,4.937,0,0,0,4.944,4.944,4.949,4.949,0,0,0,4.848-3.84H27.12a5.674,5.674,0,0,0,5.664-5.664v-8.736A5.674,5.674,0,0,0,27.12-44.256Zm-47.856-1.536a2.458,2.458,0,0,1,2.448,2.448V-25.3a2.458,2.458,0,0,1-2.448,2.448A2.4,2.4,0,0,1-23.184-25.3V-43.344A2.4,2.4,0,0,1-20.736-45.792ZM20.736-22.848A2.458,2.458,0,0,1,18.288-25.3V-43.344a2.458,2.458,0,0,1,2.448-2.448,2.4,2.4,0,0,1,2.448,2.448V-25.3A2.4,2.4,0,0,1,20.736-22.848Zm-51.024-7.008v-8.736A3.2,3.2,0,0,1-27.12-41.76h1.44v15.072h-1.44A3.135,3.135,0,0,1-30.288-29.856Zm60.576,0a3.135,3.135,0,0,1-3.168,3.168H25.68V-41.76h1.44a3.2,3.2,0,0,1,3.168,3.168Z" transform="translate(556 4329.5)"/></g></svg>