<svg xmlns="http://www.w3.org/2000/svg" xmlns:xlink="http://www.w3.org/1999/xlink" width="181.904" height="139.734" viewBox="0 0 181.904 139.734"><defs><style>.a,.h,.i{fill:#cfb97f;}.a,.c,.r{opacity:0.1;}.b{fill:#c8cad7;}.d{fill:#474157;}.e{fill:#4c4c78;}.f{fill:#fff;}.g{fill:#ededf4;}.i,.j,.s{opacity:0.5;}.j,.t{fill:#dce0ed;}.k{fill:url(#a);}.l{fill:#65617d;}.m{fill:#a27772;}.n{fill:#fbbebe;}.o{fill:#ff748e;}.p{opacity:0.05;}.q{fill:#7c5c5c;}.u{fill:#ffd037;}.v{fill:#a8a8a8;}.w{opacity:0.2;}</style><linearGradient id="a" x1="0.5" y1="1" x2="0.5" gradientUnits="objectBoundingBox"><stop offset="0" stop-color="gray" stop-opacity="0.251"/><stop offset="0.54" stop-color="gray" stop-opacity="0.122"/><stop offset="1" stop-color="gray" stop-opacity="0.102"/></linearGradient></defs><g transform="translate(0 -0.05)"><path class="a" d="M288.494,47.811a37.221,37.221,0,0,0-7.217-9.72l-100.1-.834,82.42-9.786a54.312,54.312,0,0,0-16.722-2.8A51.955,51.955,0,0,0,217.614,16a52.575,52.575,0,0,0-26.733,7.072,53.686,53.686,0,0,0-21.428-4.364c-22.242,0-40.775,13.023-44.933,30.294Z" transform="translate(-110.109 -15.95)"/><path class="a" d="M216.9,232.34a31.713,31.713,0,0,0-3.12-13.67L40.29,234.066a33.731,33.731,0,0,0-4.065,8.678l53.726,6.771L35,254.45C36.653,274,56.479,289.44,80.7,289.44a51.356,51.356,0,0,0,31.476-10.291,51.286,51.286,0,0,0,31.74,10.5c18.282,0,34.063-8.8,41.411-21.524,14.742-3.957,26.194-13.889,30.114-26.315L147.5,232.9H216.9Z" transform="translate(-35 -185.995)"/><ellipse class="a" cx="46.68" cy="2.083" rx="46.68" ry="2.083" transform="translate(33.805 135.618)"/><path class="b" d="M513.066,731.8v1.259H475.84v-1.022a12.234,12.234,0,0,0,.842-22.6h36.131a12.234,12.234,0,0,0,.253,22.36Z" transform="translate(-404.875 -597.762)"/><path class="c" d="M517.21,709.44a12.252,12.252,0,0,0-6.761,8.112H487.841a12.255,12.255,0,0,0-6.761-8.112Z" transform="translate(-409.272 -597.762)"/><path class="b" d="M211,669.6v7.067c0,3.9,2.856,7.065,6.38,7.065H326.911c3.524,0,6.38-3.163,6.38-7.065V669.6Z" transform="translate(-182.668 -564.336)"/><path class="c" d="M513.066,841.6v1.259H475.84v-1.022a12.231,12.231,0,0,0,2.87-1.529h32.073A12.292,12.292,0,0,0,513.066,841.6Z" transform="translate(-404.875 -707.565)"/><rect class="b" width="61.83" height="3.73" rx="1.865" transform="translate(58.663 133.137)"/><path class="d" d="M333.291,155.37a6.378,6.378,0,0,0-6.38-6.37H217.384A6.378,6.378,0,0,0,211,155.37v78.809H333.291Z" transform="translate(-182.668 -127.54)"/><path class="e" d="M347.38,189.881V257.6a3.139,3.139,0,0,1-3.141,3.141H234.9a3.139,3.139,0,0,1-3.141-3.141V189.881a3.141,3.141,0,0,1,3.141-3.141H344.231a3.141,3.141,0,0,1,3.149,3.141Z" transform="translate(-200.086 -159.205)"/><circle class="f" cx="1.473" cy="1.473" r="1.473" transform="translate(88.006 23.02)"/><circle class="f" cx="3.632" cy="3.632" r="3.632" transform="translate(85.847 108.994)"/><path class="f" d="M256.191,196.5v72.428H234.9a3.139,3.139,0,0,1-3.141-3.141V198.07l.114-.427.306-1.143Z" transform="translate(-200.086 -167.394)"/><path class="e" d="M223.923,187.65v6.52H196.76v-6.093l.114-.427Z" transform="translate(-165.086 -157.401)"/><path class="b" d="M347.38,189.889H231.76a3.139,3.139,0,0,1,3.141-3.139h109.33a3.139,3.139,0,0,1,3.149,3.139Z" transform="translate(-200.086 -159.213)"/><circle class="g" cx="0.786" cy="0.786" r="0.786" transform="translate(34.029 28.321)"/><circle class="g" cx="0.786" cy="0.786" r="0.786" transform="translate(36.384 28.321)"/><circle class="g" cx="0.786" cy="0.786" r="0.786" transform="translate(38.739 28.321)"/><rect class="h" width="16.312" height="1.502" transform="translate(35.734 33.119)"/><rect class="i" width="16.312" height="1.502" transform="translate(35.734 40.444)"/><rect class="i" width="16.312" height="1.502" transform="translate(35.734 45.622)"/><rect class="i" width="16.312" height="1.502" transform="translate(35.734 50.801)"/><rect class="i" width="16.312" height="1.502" transform="translate(35.734 55.978)"/><rect class="i" width="16.312" height="1.502" transform="translate(35.734 61.157)"/><rect class="i" width="16.312" height="1.502" transform="translate(35.734 66.335)"/><rect class="i" width="16.312" height="1.502" transform="translate(35.734 71.512)"/><rect class="j" width="72.28" height="0.241" transform="translate(69.46 38.643)"/><rect class="j" width="72.28" height="0.241" transform="translate(69.46 44.249)"/><rect class="j" width="72.28" height="0.241" transform="translate(69.46 49.858)"/><rect class="j" width="72.28" height="0.241" transform="translate(69.46 55.465)"/><rect class="j" width="72.28" height="0.241" transform="translate(69.46 61.071)"/><path class="i" d="M503.31,280.271H430.94V269.244l6.637,3.271,6.869.93,6.027-1.817,7.271-5.639,3.657-2.112,2.674-.515,2.558.137,4.208,2.078,5.718,3.643,4.488.578,3.559-1.227,7.542-6.178L496,261.02l4.029.623,3.282,1.895Z" transform="translate(-361.569 -218.96)"/><path class="h" d="M478.554,289.215c-6.516,0-12.54-3.986-12.614-4.037l.179-.267c.093.063,9.362,6.2,17.239,3.123a23.788,23.788,0,0,0,6.9-4.546c2.065-1.759,4.016-3.422,6.674-4.144a9.985,9.985,0,0,1,8.915,2c2.163,1.779,6.474,4.636,11.028,3.781,2.321-.435,4.279-2.131,6.351-3.926,3.966-3.445,8.081-7,15.178-1.895l-.188.261c-6.9-4.956-10.908-1.483-14.784,1.877-2.106,1.826-4.1,3.542-6.5,4-4.684.877-9.085-2.035-11.292-3.849a9.666,9.666,0,0,0-8.625-1.94c-2.59.7-4.507,2.341-6.55,4.076a24.011,24.011,0,0,1-6.986,4.6A13.5,13.5,0,0,1,478.554,289.215Z" transform="translate(-396.569 -234.726)"/><circle class="h" cx="1.792" cy="1.792" r="1.792" transform="translate(102.449 42.578)"/><path class="k" d="M288.1,465.407a28.438,28.438,0,0,0-3.38-1.761l-.05-.035a2.037,2.037,0,0,1-.618-.781v-.145a3.7,3.7,0,0,1,1.074-2.017l1.288-1.515a1.479,1.479,0,0,0,.332-.538,1.206,1.206,0,0,0,.035-.322v-.132c0-.377-.018-.753-.031-1.127-.013-.33-.1-.744-.427-.8-.171-.035-.4.026-.483-.121a.271.271,0,0,1-.023-.195v.015a.082.082,0,0,1,0-.018,4.448,4.448,0,0,0,.122-.774,1.111,1.111,0,0,0-.053-.391c-.192-.546-.847-.77-1.426-.873a2.507,2.507,0,0,1-1.594-.644,5.273,5.273,0,0,0-.322-.436,1.268,1.268,0,0,0-.594-.293,3.336,3.336,0,0,0-2.154.188,1.94,1.94,0,0,1-.869.275c-.307-.018-.592-.241-.908-.295a1.3,1.3,0,0,0-1.248.731,1.771,1.771,0,0,0-.23.861v.05h0a1.265,1.265,0,0,0,.332.879c.219.229.546.385.644.684.037.122.029.254.061.377a.174.174,0,0,0,.014.047l-.018.021a3.827,3.827,0,0,0-.8,2.353,3.905,3.905,0,0,0,2.737,3.7v.116a1.664,1.664,0,0,1-.531,1.3L275.5,465.18s-2.093-.248-2.846,2.809a5.177,5.177,0,0,0-.129,1.55,4.551,4.551,0,0,1-.573,2.323c-.858,1.681-.663,5.536,1.091,5.917a5.724,5.724,0,0,0,2.373.193v.068c-.027.724-.29,6.964-1.244,7.727-.266.208-.216.349,0,.444v.113a7.759,7.759,0,0,1-.816,3.184c-.734,1.141-.65,7.741-.65,7.741l-.505,3.894s.311,2.4,0,2.825c-.279.375-.644,9.274-.728,11.2h-.032a.938.938,0,0,0-.75.457,13.275,13.275,0,0,1-1.848,1.895,5.189,5.189,0,0,1-2.072,1.066,1.327,1.327,0,0,0-.235.1,1.236,1.236,0,0,0-.523.551.589.589,0,0,0-.055.459c.161.382,3.392.644,4.21.267a27.979,27.979,0,0,1,4.253-.85.873.873,0,0,0,.757-.757.5.5,0,0,0-.1-.378h0a3.42,3.42,0,0,1-.354-1.384.942.942,0,0,0,.238-.142,10.156,10.156,0,0,1,.584-4.086,23.454,23.454,0,0,0,.819-8.361s2.378-10.233,4.25-11.188h0c.029.035.937,1.2,1.053,4.81a14.586,14.586,0,0,0,1.441,6.07s-.584,6.223,0,8.553l-.768,3.669a1.2,1.2,0,0,1-.092-.084s.023.1.055.266l-.016.077.032.008a7.1,7.1,0,0,1,.161,1.729c-.031.269-.1.634-.161.995-.081.565-.1,1.114.195,1.233.483.2,3.353.465,3.841-.161a.9.9,0,0,0,.142-.943.966.966,0,0,0-.142-.24,3.557,3.557,0,0,1-.546-2.122.644.644,0,0,0-.092-.5,25.932,25.932,0,0,1,.668-4.119c.483-1.837,1.516-5.864.76-8.514h0c-.029-.1-.061-.206-.1-.306a11.43,11.43,0,0,1-.43-4.467,9.081,9.081,0,0,1,0-3.894c.464-2.136.79-4.229.79-4.229a26.827,26.827,0,0,0,.032-4.557l-.014-.111.122-.027s-.662-2.939-.9-4.81c-.055-.443-.127-1-.206-1.6a4.22,4.22,0,0,0,.636-.161c2.106-.726,2.767-7.294,2.767-7.294v-2.083S290.554,466.825,288.1,465.407Zm-15.684,50.708-.1-.055h0Z" transform="translate(-228.758 -382.102)"/><path class="l" d="M316.4,671.33c.913,2.625-.161,6.887-.644,8.789a26.671,26.671,0,0,0-.644,4.185,8.855,8.855,0,0,1-3.348-.077l.8-3.918c-.57-2.321,0-8.524,0-8.524a14.9,14.9,0,0,1-1.407-6.051c-.113-3.595-1-4.757-1.027-4.794h0c-1.84.956-4.155,11.151-4.155,11.151a23.723,23.723,0,0,1-.8,8.334,10.312,10.312,0,0,0-.571,4.071,1.256,1.256,0,0,1-1.035.2,7.092,7.092,0,0,1-2.389-1.112s.419-11.107.723-11.529,0-2.815,0-2.815l.494-3.881s-.076-6.582.644-7.727a7.868,7.868,0,0,0,.8-3.173v-.113l1.1-1.318s10.655-.8,11.454,0a2.248,2.248,0,0,1,.39,1.2,27.382,27.382,0,0,1-.032,4.541s-.322,2.093-.776,4.222a9.241,9.241,0,0,0,0,3.881,11.591,11.591,0,0,0,.427,4.456Z" transform="translate(-258.331 -550.129)"/><path class="m" d="M370.673,847.7c-.475.628-3.271.362-3.748.161-.291-.121-.269-.666-.19-1.23.05-.359.122-.724.151-.99a9.064,9.064,0,0,0-.227-2.075s.628.667.779,0a.724.724,0,0,1,.542-.515,1.423,1.423,0,0,1,.988.061c.494.214,1.318.671,1.17,1.288a3.607,3.607,0,0,0,.533,2.114.956.956,0,0,1,.138.24A.913.913,0,0,1,370.673,847.7Z" transform="translate(-313.27 -709.815)"/><path class="c" d="M370.8,866.679c-.475.628-3.271.362-3.748.161-.291-.121-.269-.666-.19-1.23a3.224,3.224,0,0,0,1.661.179,4.659,4.659,0,0,1,.6-.019,13.691,13.691,0,0,0,1.816-.035A.913.913,0,0,1,370.8,866.679Z" transform="translate(-313.397 -728.793)"/><path class="c" d="M318.431,711.4a23.724,23.724,0,0,1-.8,8.334,10.312,10.312,0,0,0-.571,4.071,1.256,1.256,0,0,1-1.035.2c.23-1.61,1.207-8.521,1.835-13.982a22.864,22.864,0,0,1,4.052-10.5l.666.732C320.746,701.207,318.431,711.4,318.431,711.4Z" transform="translate(-270.782 -589.439)"/><path class="n" d="M344.081,501.105l-.465,2.283-2.275,3.825-2.806-1.2s-3.815-4-1.418-4.565a2.114,2.114,0,0,0,.8-.354,1.651,1.651,0,0,0,.621-1.376,4.233,4.233,0,0,0-.39-1.637l4.908-1.541a7.811,7.811,0,0,0-.353,1.988,2.625,2.625,0,0,0,.866,2.31A1.46,1.46,0,0,0,344.081,501.105Z" transform="translate(-287.82 -419.134)"/><path class="c" d="M352.538,496.54a7.812,7.812,0,0,0-.353,1.988,3.879,3.879,0,0,1-4.166,1.19,4.233,4.233,0,0,0-.39-1.637Z" transform="translate(-297.304 -419.134)"/><path class="n" d="M341.152,472.411a3.871,3.871,0,1,1-1.134-2.747A3.881,3.881,0,0,1,341.152,472.411Z" transform="translate(-285.356 -395.633)"/><path class="c" d="M344.081,523.507l-.465,2.283-2.275,3.825-2.806-1.2s-3.815-4-1.418-4.565a2.112,2.112,0,0,0,.8-.354c-.433,1.19,1.354,3.664,1.354,3.664.208.306.686.114.686.114,1.149-.174,3.269-3.484,3.614-4.034A1.458,1.458,0,0,0,344.081,523.507Z" transform="translate(-287.82 -441.536)"/><path class="c" d="M330.659,654.283c-.676.161-4.414.98-5.831.774-1.56-.229-4.594-.38-4.594-.38a9.182,9.182,0,0,1-2.524-.161V654.4l1.1-1.318s10.655-.8,11.453,0A2.128,2.128,0,0,1,330.659,654.283Z" transform="translate(-272.2 -550.18)"/><path class="o" d="M309.846,527.433s-2.007-2.78-1.251-3.863l-3.392,1.391s-2.041-.248-2.777,2.8a5.312,5.312,0,0,0-.127,1.547,4.6,4.6,0,0,1-.559,2.313c-.837,1.674-.644,5.518,1.066,5.9a5.285,5.285,0,0,0,2.321.19s-.229,6.964-1.217,7.762,2.522.608,2.522.608,3.033.161,4.593.382,5.935-.8,5.935-.8-.644-2.93-.876-4.794-.76-5.834-.76-5.834l3.881-5.258s.684-3.178-1.713-4.585a27.5,27.5,0,0,0-3.3-1.755s-2.415,3.923-3.664,4.113C310.53,527.546,310.053,527.739,309.846,527.433Z" transform="translate(-258.398 -441.696)"/><path class="c" d="M323.575,555.16a5.7,5.7,0,0,0,.192,1.75c.229.494,1.064,3.234,1.064,3.234h-1.9s1.027-1.1.951-1.635S323.575,555.16,323.575,555.16Z" transform="translate(-276.58 -468.318)"/><path class="n" d="M330.324,586.2s-4.2-1.027-4.593-1.9-1.471-2.835-1.471-2.835l.443-.6,2.044,1.61s2.436,1.932,3.577,2.131S330.324,586.2,330.324,586.2Z" transform="translate(-277.696 -489.889)"/><path class="p" d="M330.324,586.2s-4.2-1.027-4.593-1.9-1.471-2.835-1.471-2.835l.443-.6,2.044,1.61s2.436,1.932,3.577,2.131S330.324,586.2,330.324,586.2Z" transform="translate(-277.696 -489.889)"/><path class="n" d="M344.932,583.164v2.279h-.367a10.663,10.663,0,0,0-5.174,1.339l-.686.38-.185.1-1.18-2.656,1.1-.99h.056a6.656,6.656,0,0,0,1.932-.043,3.135,3.135,0,0,1,2.437-.312c.683.174,1.264.938,1.932.7Z" transform="translate(-288.67 -491.794)"/><path class="c" d="M364.124,544.029l.761.856v2.073s-.644,6.545-2.7,7.268-5.723-.419-5.723-.419-.948-2.511-.505-2.664,3.918-1.069,3.918-1.069-.05-3.839.711-4.981c0,0-.494-3.577,1.217-3.653S364.124,544.029,364.124,544.029Z" transform="translate(-304.191 -456.807)"/><path class="o" d="M364.814,544.029l.761.856v2.073s-.644,6.545-2.7,7.268-5.721-.419-5.721-.419-.948-2.511-.505-2.664,3.917-1.069,3.917-1.069-.048-3.839.713-4.981c0,0-.5-3.577,1.217-3.653S364.814,544.029,364.814,544.029Z" transform="translate(-304.77 -456.807)"/><path class="c" d="M344.23,474.029a1.5,1.5,0,0,0-.087-.741.568.568,0,0,0-.6-.348c-.322.076-.467.5-.786.6a.624.624,0,0,1-.692-.356,1.819,1.819,0,0,1-.132-.827V471.4a1.573,1.573,0,0,0-.225-.992,1.76,1.76,0,0,0-1.3-.472,1.106,1.106,0,0,0-.745.3.966.966,0,0,1-.784.28.678.678,0,0,1-.546-.473.038.038,0,0,1,0-.013,3.881,3.881,0,1,1,5.773,5.151A10.742,10.742,0,0,0,344.23,474.029Z" transform="translate(-289.498 -395.602)"/><path class="q" d="M333.621,458.1a.682.682,0,0,1-.547-.473c-.031-.122-.023-.254-.06-.375-.089-.3-.407-.456-.621-.683a1.53,1.53,0,0,1-.1-1.75,1.264,1.264,0,0,1,1.219-.728c.307.055.573.274.885.293a1.8,1.8,0,0,0,.848-.274,3.194,3.194,0,0,1,2.1-.187,1.217,1.217,0,0,1,.58.291,4.929,4.929,0,0,1,.309.435,2.415,2.415,0,0,0,1.555.644c.565.1,1.206.322,1.391.871a2.285,2.285,0,0,1-.066,1.127.322.322,0,0,0,.014.233c.089.146.309.085.483.119.322.068.4.483.414.8q.023.56.031,1.127a1.448,1.448,0,0,1-.032.417,1.476,1.476,0,0,1-.322.523l-1.257,1.51a3.234,3.234,0,0,0-1.037,2.313.537.537,0,0,1-.663-.386,1.706,1.706,0,0,1,.042-.856,10.522,10.522,0,0,0,.2-1.486,1.5,1.5,0,0,0-.087-.742.57.57,0,0,0-.6-.348c-.322.076-.465.5-.784.6a.622.622,0,0,1-.692-.356,1.84,1.84,0,0,1-.132-.827v-.955a1.573,1.573,0,0,0-.225-.992,1.758,1.758,0,0,0-1.3-.472,1.106,1.106,0,0,0-.745.3A.966.966,0,0,1,333.621,458.1Z" transform="translate(-284.247 -383.293)"/><path class="c" d="M347.15,554.57l1.193,4.894S349.281,559.459,347.15,554.57Z" transform="translate(-296.901 -467.823)"/><path class="c" d="M366.754,549.48a7.831,7.831,0,0,0-.951,5.2l.29.021S365.574,553.475,366.754,549.48Z" transform="translate(-312.433 -463.552)"/><path class="c" d="M378.59,638.6s1.916-.634,2.056.837C380.646,639.438,380.283,638.429,378.59,638.6Z" transform="translate(-323.28 -538.213)"/><path class="c" d="M327.143,586.83s-.38,2.664.3,3.73a8.362,8.362,0,0,1-3.348.456l-.229-4.185Z" transform="translate(-277.369 -494.89)"/><path class="c" d="M338.705,589.663l-.185.1-1.18-2.656,1.1-.99h.056A8.282,8.282,0,0,0,338.705,589.663Z" transform="translate(-288.67 -494.294)"/><path class="o" d="M321.4,586.12s-.38,2.664.3,3.73a8.36,8.36,0,0,1-3.348.456l-1.331-4.185Z" transform="translate(-271.621 -494.294)"/><path class="m" d="M276.731,845.648a.86.86,0,0,1-.739.753,27.555,27.555,0,0,0-4.15.847c-.8.381-3.957.114-4.11-.266a.6.6,0,0,1,.055-.459,1.254,1.254,0,0,1,.739-.644,5.02,5.02,0,0,0,2.022-1.061,12.938,12.938,0,0,0,1.8-1.888.911.911,0,0,1,.732-.456c.333-.016.7.153.856.882,0,0,1.825,1.042,2.32.129a5.016,5.016,0,0,0,.378,1.787h0a.5.5,0,0,1,.1.375Z" transform="translate(-230.249 -709.381)"/><path class="c" d="M276.731,860.21a.86.86,0,0,1-.739.753,27.548,27.548,0,0,0-4.15.847c-.8.382-3.957.114-4.11-.266a.6.6,0,0,1,.055-.459,1.218,1.218,0,0,1,.51-.547c.515.341,1.658.676,4.173.283a18.46,18.46,0,0,0,4.164-.992h0A.5.5,0,0,1,276.731,860.21Z" transform="translate(-230.249 -723.943)"/><g class="r" transform="translate(47.82 72.332)"><path d="M388.194,471.072a.082.082,0,0,0,0-.019,3.469,3.469,0,0,0,.117-.863,5.456,5.456,0,0,1-.117.692A.421.421,0,0,0,388.194,471.072Z" transform="translate(-379.148 -469.358)"/><path d="M338.885,470.3a1.126,1.126,0,0,1,.093.435,1.3,1.3,0,0,0-.093-.605.571.571,0,0,0-.6-.349c-.322.076-.465.5-.784.6a.625.625,0,0,1-.692-.357,1.8,1.8,0,0,1-.132-.827v-.953a1.572,1.572,0,0,0-.225-.992,1.763,1.763,0,0,0-1.306-.473,1.1,1.1,0,0,0-.744.3.966.966,0,0,1-.784.279.674.674,0,0,1-.547-.473c-.032-.122-.023-.253-.06-.375-.089-.3-.407-.454-.621-.681a1.252,1.252,0,0,1-.322-.8,1.3,1.3,0,0,0,.322.976c.214.227.533.383.621.683.037.121.027.253.06.375a.681.681,0,0,0,.547.473.966.966,0,0,0,.784-.28,1.116,1.116,0,0,1,.742-.3,1.756,1.756,0,0,1,1.306.473,1.581,1.581,0,0,1,.225.992v.953a1.8,1.8,0,0,0,.132.829.624.624,0,0,0,.692.356c.322-.1.459-.525.784-.6A.575.575,0,0,1,338.885,470.3Z" transform="translate(-332.06 -465.02)"/><path d="M380.186,490a1.5,1.5,0,0,1-.322.525q-.631.753-1.257,1.508a3.43,3.43,0,0,0-1.048,2.183,3.718,3.718,0,0,1,1.048-2.011l1.257-1.51a1.491,1.491,0,0,0,.322-.523,1.447,1.447,0,0,0,.032-.419A1.043,1.043,0,0,1,380.186,490Z" transform="translate(-370.233 -485.769)"/><path d="M373.29,514.824a.9.9,0,0,1-.039-.2,1.02,1.02,0,0,0,.039.375.536.536,0,0,0,.663.386c0-.056-.011-.113-.013-.161A.543.543,0,0,1,373.29,514.824Z" transform="translate(-366.618 -506.636)"/></g><path class="c" d="M295,847.42s.4.7,1.84.082" transform="translate(-253.146 -713.531)"/><path class="c" d="M370.65,848.46a2.2,2.2,0,0,0,2.811.483" transform="translate(-316.618 -714.403)"/><path class="c" d="M388.391,740.94s-.879.549-.908.863.454-.229.454-.229Z" transform="translate(-330.741 -624.192)"/><path class="c" d="M387.063,767.08a1.823,1.823,0,0,1-1.082.422c-.657.029-.6.885-.172.628A10.8,10.8,0,0,0,387.063,767.08Z" transform="translate(-329.066 -646.124)"/><path class="c" d="M392.335,770.49s-.422,2.07-.765,1.671" transform="translate(-334.171 -648.985)"/><g class="s" transform="translate(75.847 73.874)"><rect class="t" width="10.624" height="2.254"/><rect class="t" width="10.624" height="2.254" transform="translate(24.396)"/><rect class="t" width="10.624" height="2.254" transform="translate(48.792)"/></g><ellipse class="a" cx="4.335" cy="0.732" rx="4.335" ry="0.732" transform="translate(149.032 128.298)"/><ellipse class="a" cx="4.335" cy="0.732" rx="4.335" ry="0.732" transform="translate(14.213 137.547)"/><ellipse class="h" cx="6.473" cy="1.095" rx="6.473" ry="1.095" transform="translate(137.406 135.786)"/><path class="h" d="M914.211,839.34a1.874,1.874,0,0,0,.617-.932.827.827,0,0,0-.43-.948,1.213,1.213,0,0,0-1.141.4,1.521,1.521,0,0,1-1.107.534,1.691,1.691,0,0,0,.522-1.579.658.658,0,0,0-.145-.322c-.221-.235-.618-.135-.882.05a3.286,3.286,0,0,0-1.075,2.75,5.165,5.165,0,0,1-.014-1.127,1.164,1.164,0,0,0-.425-1,1.287,1.287,0,0,0-.644-.151,1.338,1.338,0,0,0-1.053.3,1.037,1.037,0,0,0,.04,1.288,4.187,4.187,0,0,0,1.09.872,2.437,2.437,0,0,1,.779.742.778.778,0,0,1,.056.134h2.36A6.617,6.617,0,0,0,914.211,839.34Z" transform="translate(-767.656 -704.248)"/><path class="h" d="M138.761,807.19s.885,1.157-.407,2.9-2.358,3.22-1.932,4.309c0,0,1.951-3.244,3.542-3.289S140.508,809.141,138.761,807.19Z" transform="translate(-120.015 -679.777)"/><path class="c" d="M139.032,807.19a1.449,1.449,0,0,1,.182.364c1.549,1.819,2.373,3.517.884,3.559-1.386.04-3.049,2.519-3.448,3.145a1.482,1.482,0,0,0,.047.143s1.951-3.244,3.541-3.289S140.779,809.141,139.032,807.19Z" transform="translate(-120.287 -679.777)"/><path class="u" d="M160.6,814.976c0,.407-.045.737-.1.737s-.1-.322-.1-.737.056-.216.113-.216S160.6,814.568,160.6,814.976Z" transform="translate(-140.214 -686.088)"/><path class="u" d="M161.536,817.911c-.357.195-.67.312-.7.262s.24-.248.6-.443.217-.053.243,0S161.894,817.716,161.536,817.911Z" transform="translate(-140.582 -688.537)"/><path class="h" d="M112.082,807.19s-.885,1.157.407,2.9,2.358,3.22,1.932,4.309c0,0-1.949-3.244-3.541-3.289S110.335,809.141,112.082,807.19Z" transform="translate(-98.006 -679.777)"/><path class="c" d="M112.064,807.19a1.449,1.449,0,0,0-.182.364c-1.549,1.819-2.373,3.517-.884,3.559,1.386.04,3.049,2.519,3.448,3.145a1.147,1.147,0,0,1-.048.143s-1.949-3.244-3.541-3.289S110.317,809.141,112.064,807.19Z" transform="translate(-97.988 -679.777)"/><path class="u" d="M112.22,814.976c0,.407.047.737.1.737s.1-.322.1-.737-.056-.216-.113-.216S112.22,814.568,112.22,814.976Z" transform="translate(-99.789 -686.088)"/><path class="u" d="M107.585,817.911c.357.195.668.312.7.262s-.24-.248-.6-.443-.217-.053-.245,0S107.227,817.716,107.585,817.911Z" transform="translate(-95.717 -688.537)"/><path class="v" d="M114,844.083s2.473-.077,3.22-.607,3.8-1.165,3.989-.314,3.715,4.232.924,4.255-6.486-.435-7.229-.887S114,844.083,114,844.083Z" transform="translate(-101.283 -709.61)"/><path class="w" d="M122.151,854.071c-2.791.023-6.487-.435-7.231-.887-.565-.346-.792-1.584-.866-2.154h-.084s.161,1.993.9,2.447,4.438.91,7.229.887c.8,0,1.083-.293,1.069-.718C123.057,853.907,122.75,854.066,122.151,854.071Z" transform="translate(-101.258 -716.56)"/><path class="h" d="M493.7,534.245a5.848,5.848,0,0,1,5.969-5.818h.047v-1.5h-.047a7.346,7.346,0,0,0-7.466,7.315,7.447,7.447,0,0,0,2.559,5.619l1.06-1.061A5.956,5.956,0,0,1,493.7,534.245Z" transform="translate(-418.602 -444.632)"/><path class="i" d="M513.958,526.94v1.5a5.967,5.967,0,1,1-3.894,10.523L509,540.021a7.463,7.463,0,1,0,4.955-13.081Z" transform="translate(-432.697 -444.641)"/><path class="i" d="M814.518,527.957a5.848,5.848,0,0,1,5.818,5.969v.047h1.5v-.047a7.347,7.347,0,0,0-7.315-7.466,7.443,7.443,0,0,0-5.618,2.558l1.061,1.061a5.956,5.956,0,0,1,4.557-2.122Z" transform="translate(-684.32 -444.238)"/><path class="h" d="M811.461,548.235h-1.5a5.967,5.967,0,1,1-10.523-3.894l-1.056-1.061a7.463,7.463,0,1,0,13.081,4.955Z" transform="translate(-673.95 -458.35)"/><path class="i" d="M656.2,529.66l-.3,1.491a5.844,5.844,0,0,1,3.591,5.534,5.967,5.967,0,1,1-8.359-5.465l-.663-1.344A7.463,7.463,0,1,0,661,536.685,7.343,7.343,0,0,0,656.2,529.66Z" transform="translate(-547.704 -446.923)"/><path class="h" d="M677.648,527.887a5.211,5.211,0,0,1,2.078.431l.3-1.489a6.585,6.585,0,0,0-2.376-.439,7.433,7.433,0,0,0-3.059.658l.67,1.341A5.9,5.9,0,0,1,677.648,527.887Z" transform="translate(-571.63 -444.179)"/></g></svg>