<svg xmlns="http://www.w3.org/2000/svg" width="178.434" height="141.747" viewBox="0 0 178.434 141.747"><defs><style>.a{fill:#f2f2f2;}.b,.l{fill:#3f3d56;}.c,.j{fill:none;}.c,.l{stroke:#3f3d56;stroke-width:2px;}.c,.j,.l{stroke-miterlimit:10;}.d{fill:#cfb97f;}.e{fill:#2f2e41;}.f{fill:#fbbebe;}.g{opacity:0.05;}.h,.j{opacity:0.1;}.i{fill:#d0cde1;}.j{stroke:#000;}.k{fill:#ff6584;}</style></defs><g transform="translate(0 0)"><rect class="a" width="126.675" height="67.678" transform="matrix(0.853, 0.522, -0.522, 0.853, 70.379, 0)"/><path class="b" d="M321.436,104.318H236v46.763h60.278l.459,10.431,10.048-6.406,6.315-4.026h8.337Z" transform="translate(-189.434 -83.735)"/><line class="c" x2="76.163" transform="translate(0 140.747)"/><path class="d" d="M537.817,272.633l-2.229-2.011c-7.915-7.267-13.14-11.983-13.14-17.859a8.358,8.358,0,0,1,8.453-8.5,9.092,9.092,0,0,1,6.916,3.247,9.091,9.091,0,0,1,6.916-3.247,8.358,8.358,0,0,1,8.453,8.5c0,5.875-5.225,10.592-13.14,17.859Z" transform="translate(-448.533 -214.481)"/><path class="e" d="M216.888,410.885a5.328,5.328,0,0,1,2.355-5.229c.166-5.134,3.656-9.235,7.939-9.235,4.388,0,7.945,4.306,7.945,9.618s-3.557,9.618-7.945,9.618a6.645,6.645,0,0,1-1.232-.115,5.331,5.331,0,1,1-9.062-4.656Z" transform="translate(-202.044 -336.619)"/><path class="f" d="M271.625,446.964a2.019,2.019,0,0,0,.1.932c.183.423.632.8.5,1.245a.954.954,0,0,1-.667.539c-1.334.452-2.789.183-4.2.244a13.422,13.422,0,0,1-1.411.049,2.243,2.243,0,0,1-1.311-.457,11.216,11.216,0,0,0,2.062-1.3,2.3,2.3,0,0,0,.416-.4,2.435,2.435,0,0,0,.361-1.417q.024-.736,0-1.473,1.51-.016,3.02-.013c.323,0,1.31-.078,1.423.27.056.174-.16.683-.193.879A8.937,8.937,0,0,0,271.625,446.964Z" transform="translate(-241.596 -375.542)"/><path class="g" d="M271.625,446.964a2.019,2.019,0,0,0,.1.932c.183.423.632.8.5,1.245a.954.954,0,0,1-.667.539c-1.334.452-2.789.183-4.2.244a13.422,13.422,0,0,1-1.411.049,2.243,2.243,0,0,1-1.311-.457,11.216,11.216,0,0,0,2.062-1.3,2.3,2.3,0,0,0,.416-.4,2.435,2.435,0,0,0,.361-1.417q.024-.736,0-1.473,1.51-.016,3.02-.013c.323,0,1.31-.078,1.423.27.056.174-.16.683-.193.879A8.937,8.937,0,0,0,271.625,446.964Z" transform="translate(-241.596 -375.542)"/><path class="f" d="M297.318,545.748a6.782,6.782,0,0,1-.389,3.317,62.967,62.967,0,0,0-6.524-.343,3.632,3.632,0,0,0,.7-1.717,9.55,9.55,0,0,0,.011-1.757l4.229-.014a3.986,3.986,0,0,1,.925.069C296.678,545.4,296.9,545.671,297.318,545.748Z" transform="translate(-262.275 -456.066)"/><path class="f" d="M319.752,544.33c.217.356.479.683.721,1.023a14.878,14.878,0,0,1,1.176,2.021,26.712,26.712,0,0,0,1.325,2.56,7.133,7.133,0,0,1,.74,1.274,4.072,4.072,0,0,1,.215,1.332,2.706,2.706,0,0,1-.4,1.727,1.572,1.572,0,0,1-1.361.6,1.118,1.118,0,0,1-.709-.307,1.629,1.629,0,0,1-.225-1.453,2.12,2.12,0,0,0,.038-1.059,3.842,3.842,0,0,0-.244-.488,3.744,3.744,0,0,1-.3-1.2,4.4,4.4,0,0,0-.725-2.259c-.271-.334-.638-.58-.9-.917-.14-.177-.25-.376-.4-.545-.212-.24-.5-.424-.626-.72a2.876,2.876,0,0,1-.111-.6,4.257,4.257,0,0,0-.348-.922,11.792,11.792,0,0,1-.736-3.534,5.052,5.052,0,0,0,1.519-.3A25.9,25.9,0,0,0,319.752,544.33Z" transform="translate(-283.523 -452.329)"/><path class="g" d="M319.752,544.33c.217.356.479.683.721,1.023a14.878,14.878,0,0,1,1.176,2.021,26.712,26.712,0,0,0,1.325,2.56,7.133,7.133,0,0,1,.74,1.274,4.072,4.072,0,0,1,.215,1.332,2.706,2.706,0,0,1-.4,1.727,1.572,1.572,0,0,1-1.361.6,1.118,1.118,0,0,1-.709-.307,1.629,1.629,0,0,1-.225-1.453,2.12,2.12,0,0,0,.038-1.059,3.842,3.842,0,0,0-.244-.488,3.744,3.744,0,0,1-.3-1.2,4.4,4.4,0,0,0-.725-2.259c-.271-.334-.638-.58-.9-.917-.14-.177-.25-.376-.4-.545-.212-.24-.5-.424-.626-.72a2.876,2.876,0,0,1-.111-.6,4.257,4.257,0,0,0-.348-.922,11.792,11.792,0,0,1-.736-3.534,5.052,5.052,0,0,0,1.519-.3A25.9,25.9,0,0,0,319.752,544.33Z" transform="translate(-283.523 -452.329)"/><circle class="f" cx="3.555" cy="3.555" r="3.555" transform="translate(24.406 63.878)"/><path class="f" d="M249.5,610.87a6.74,6.74,0,0,1,1.173,2.858l.888,3.713a40.377,40.377,0,0,1,.908,4.57,5.8,5.8,0,0,1-.144,2.615,5.426,5.426,0,0,1-1.045,1.671,11.536,11.536,0,0,1-3.433,2.792c-.7.361-1.433.639-2.148.96-1.067.479-2.087,1.056-3.106,1.632l-3.833,2.167a11.566,11.566,0,0,0-2.338,1.587,5.8,5.8,0,0,0-1.433,2.171,1.091,1.091,0,0,1-.336.559.9.9,0,0,1-.766.023,4.474,4.474,0,0,1-3.056-4.478,23.229,23.229,0,0,0,7.657-4.478c1.711-1.506,3.253-3.3,5.34-4.216.913-.4,2.008-.705,2.435-1.606a3.284,3.284,0,0,0,.223-1.316,16.73,16.73,0,0,0-.161-3.7c-.2-1.027-.589-2.007-.882-3.011a32.913,32.913,0,0,1-.979-6.2,34.505,34.505,0,0,1,4.11-.243.466.466,0,0,1,.339.09.491.491,0,0,1,.105.269A3.269,3.269,0,0,0,249.5,610.87Z" transform="translate(-214.449 -507.201)"/><path class="g" d="M249.5,610.87a6.74,6.74,0,0,1,1.173,2.858l.888,3.713a40.377,40.377,0,0,1,.908,4.57,5.8,5.8,0,0,1-.144,2.615,5.426,5.426,0,0,1-1.045,1.671,11.536,11.536,0,0,1-3.433,2.792c-.7.361-1.433.639-2.148.96-1.067.479-2.087,1.056-3.106,1.632l-3.833,2.167a11.566,11.566,0,0,0-2.338,1.587,5.8,5.8,0,0,0-1.433,2.171,1.091,1.091,0,0,1-.336.559.9.9,0,0,1-.766.023,4.474,4.474,0,0,1-3.056-4.478,23.229,23.229,0,0,0,7.657-4.478c1.711-1.506,3.253-3.3,5.34-4.216.913-.4,2.008-.705,2.435-1.606a3.284,3.284,0,0,0,.223-1.316,16.73,16.73,0,0,0-.161-3.7c-.2-1.027-.589-2.007-.882-3.011a32.913,32.913,0,0,1-.979-6.2,34.505,34.505,0,0,1,4.11-.243.466.466,0,0,1,.339.09.491.491,0,0,1,.105.269A3.269,3.269,0,0,0,249.5,610.87Z" transform="translate(-214.449 -507.201)"/><path class="e" d="M222.45,733.768l2.063,3.659c.16.282.32.567.452.864.224.5.366,1.038.618,1.526a7.586,7.586,0,0,0,1.065,1.445l1.345,1.55a1.806,1.806,0,0,0,.519.462.618.618,0,0,0,.659-.03.685.685,0,0,0,.173-.237,1.454,1.454,0,0,0,.138-.707,1.51,1.51,0,0,0-.489-1.048c-.186-.163-.423-.3-.5-.53a.974.974,0,0,1-.022-.393A15.99,15.99,0,0,1,229,736.9a5.056,5.056,0,0,0,.461-2.522c-.36-.109-.827-.183-1.042.124-.419.6-.443.375-1.089.284a2.593,2.593,0,0,1-1.723-.635,3.271,3.271,0,0,1-.481-2.612,3.859,3.859,0,0,0-1.889.508c-.21.106-.416.218-.619.33a1.023,1.023,0,0,0-.3.216C222.047,732.919,222.244,733.4,222.45,733.768Z" transform="translate(-207.516 -605.617)"/><path class="e" d="M284.1,590.919a17.418,17.418,0,0,1,.521,2.2c.06.41.091.824.121,1.237a19.525,19.525,0,0,1-4.3.365l-6.012.065a12.811,12.811,0,0,1-.162-2.451,32.345,32.345,0,0,0,.507-4.012,37.1,37.1,0,0,1,4.991-.543,2.344,2.344,0,0,1,.906.085c.272.1.5.294.761.418.589.28,1.472.144,1.972.6C283.864,589.3,283.941,590.343,284.1,590.919Z" transform="translate(-249.319 -490.214)"/><path class="h" d="M284.1,590.919a17.418,17.418,0,0,1,.521,2.2c.06.41.091.824.121,1.237a19.525,19.525,0,0,1-4.3.365l-6.012.065a12.811,12.811,0,0,1-.162-2.451,32.345,32.345,0,0,0,.507-4.012,37.1,37.1,0,0,1,4.991-.543,2.344,2.344,0,0,1,.906.085c.272.1.5.294.761.418.589.28,1.472.144,1.972.6C283.864,589.3,283.941,590.343,284.1,590.919Z" transform="translate(-249.319 -490.214)"/><path class="f" d="M284.948,606.819c.453,2.14-.026,4.351-.137,6.536-.079,1.563.031,3.129.076,4.694a6.437,6.437,0,0,1-.061,1.346,6.823,6.823,0,0,1-.357,1.154l-.54,1.44c-.507,1.352-1.024,2.8-.507,4.213a1.974,1.974,0,0,1,.079,1.139c-.774,3.234-.076,6.668.034,9.99a2.409,2.409,0,0,0,.167.957c.276.584.957.868,1.314,1.406a1.868,1.868,0,0,1-.233,2.178,3.061,3.061,0,0,1-2.086.951,12.1,12.1,0,0,1-2.915-.312l-.106-.1a5.846,5.846,0,0,1,.359-1.962,8.244,8.244,0,0,0,.072-1.217c.007-.364.022-.728,0-1.091a10.036,10.036,0,0,0-.157-1.1l-.815-4.521-.176-.976-.732-4.06a8.731,8.731,0,0,1,.289-2.4,33.024,33.024,0,0,0,.313-4.828,6.378,6.378,0,0,0-.155-1.316,5.712,5.712,0,0,1-.184-1.223,4.443,4.443,0,0,0-.406-1.476,17.859,17.859,0,0,1-.765-5.211,3.981,3.981,0,0,0-.2-1.1,7.522,7.522,0,0,0-.927-1.442,1.921,1.921,0,0,1-.381-1.615c.288-.869,1.47-1.148,2.187-1.4a6.149,6.149,0,0,1,3.822-.13A13.193,13.193,0,0,1,284.948,606.819Z" transform="translate(-250.505 -504.126)"/><path class="e" d="M293.617,781.89a.542.542,0,0,0,.2.217.648.648,0,0,0,.31.045l4.772-.1a10.386,10.386,0,0,1,1.758.064c.464.07.919.2,1.387.233a6.272,6.272,0,0,0,3.092-.915.788.788,0,0,0,.378-.3.643.643,0,0,0,.007-.467,1.436,1.436,0,0,0-.531-.772c-.031-.021-.064-.042-.1-.061a2.356,2.356,0,0,0-.853-.222,5.74,5.74,0,0,1-3.114-1.1c-.243-.212-.449-.461-.673-.691a12.017,12.017,0,0,0-1.531-1.256.542.542,0,0,0-.4-.15.524.524,0,0,0-.22.127,1.51,1.51,0,0,0-.517.642.581.581,0,0,0,.256.715c.186.078.388.038.556.145-.344.249-.875.373-1.262.63a4.3,4.3,0,0,1-1.268.671,1.3,1.3,0,0,1-1.323-.335c-.164-.2-.372-.508-.595-.376a.42.42,0,0,0-.155.228,6.137,6.137,0,0,0-.453,1.694,2.19,2.19,0,0,0,.27,1.334Z" transform="translate(-264.625 -641.636)"/><path class="e" d="M273.143,551a3.122,3.122,0,0,1,.818.091,3.521,3.521,0,0,1,.731.335l2.613,1.449a2.48,2.48,0,0,1,.532.358,2.086,2.086,0,0,1,.508,1.442c.088,2.033-.83,3.983-.945,6.015a7.709,7.709,0,0,0,.323,2.683c.066.215.13.479-.027.639a.567.567,0,0,1-.206.118,9.055,9.055,0,0,1-2.613.461,31.041,31.041,0,0,1-6.5.042.758.758,0,0,1-.308-.089.779.779,0,0,1-.261-.378q-.408-.956-.8-1.918a7.272,7.272,0,0,1-.76-3.367c.138-1.438,1.081-2.651,1.632-3.987.164-.4.295-.812.494-1.195a10.2,10.2,0,0,1,.746-1.12c.212-.3.415-.979.674-1.19a4.032,4.032,0,0,1,1.608-.3,13.614,13.614,0,0,1,1.748-.091Z" transform="translate(-242.865 -460.701)"/><path class="h" d="M222.45,735.845l2.063,3.659c.16.282.32.567.452.864.224.5.366,1.038.618,1.526a7.592,7.592,0,0,0,1.065,1.445l1.345,1.55a1.807,1.807,0,0,0,.519.462.618.618,0,0,0,.659-.03.685.685,0,0,0,.173-.237,1.454,1.454,0,0,0,.138-.707,4.5,4.5,0,0,1-1.307-.964,6.455,6.455,0,0,1-.76-1.142l-.556-.976q-1.429-2.514-2.859-5.028a5.711,5.711,0,0,1-.763-2.137c-.21.106-.416.219-.619.33a1.024,1.024,0,0,0-.3.216C222.047,735,222.244,735.48,222.45,735.845Z" transform="translate(-207.516 -607.695)"/><path class="i" d="M257.8,460.925a35.524,35.524,0,0,0,5.23.495c.432.009.954-.043,1.146-.43.09-.181.084-.407.209-.565.235-.3.708-.151,1.047.021a2.98,2.98,0,0,1,1.251.951,3.228,3.228,0,0,1,.353,1.119,3.989,3.989,0,0,0,1.048,2.274c.329.295.741.487,1.057.8a2.721,2.721,0,0,1,.71,1.957,11.778,11.778,0,0,1-.3,2.114,17.135,17.135,0,0,0,.4,7.787.521.521,0,0,1,.028.281c-.051.182-.272.247-.458.278-2.9.477-6,.024-8.667,1.254-.222-.547-.771-.859-1.043-1.383a4.069,4.069,0,0,1-.248-1.4c-.158-1.285-.978-2.38-1.444-3.589A21.42,21.42,0,0,0,257,469.671c-.2-.348-.456-.666-.654-1.017a11.286,11.286,0,0,1-1.008-3.06,6.3,6.3,0,0,1,1.284-3.855C256.914,461.294,257.279,460.836,257.8,460.925Z" transform="translate(-234.117 -387.857)"/><path class="j" d="M310.382,488.546c.331.074.524.408.678.71a3.757,3.757,0,0,1,.261.592,3.472,3.472,0,0,1,.108,1.059,2.438,2.438,0,0,1-.072.672.886.886,0,0,1-.391.533" transform="translate(-278.311 -410.567)"/><path class="d" d="M256.923,607.4l-.343-.8c-1.2-2.862-2-4.73-1.3-6.272a2.414,2.414,0,0,1,3.244-1.213,2.626,2.626,0,0,1,1.424,1.686,2.626,2.626,0,0,1,2.207-.019,2.414,2.414,0,0,1,1.194,3.251c-.708,1.542-2.649,2.15-5.6,3.1Z" transform="translate(-233.871 -499.134)"/><ellipse class="e" cx="3.973" cy="1.961" rx="3.973" ry="1.961" transform="translate(22.727 63.95) rotate(-14.336)"/><path class="f" d="M254.787,478.459a6.093,6.093,0,0,0-1-2.784,2.4,2.4,0,0,0-.895-.869,1.106,1.106,0,0,0-1.187.092,1.707,1.707,0,0,0-.427.79,9.49,9.49,0,0,0-.628,4,15,15,0,0,0,.332,3.707c.178.682.453,1.339.589,2.031a2.861,2.861,0,0,1-.251,2.051,5.242,5.242,0,0,0-.665,1.509,7.4,7.4,0,0,0-.119,1.955l.05,1.8a30.72,30.72,0,0,1-.339,7.009,10.094,10.094,0,0,0-.628,3.1,4.528,4.528,0,0,0,.327,1.116,2.3,2.3,0,0,0,.935,1.316,1.885,1.885,0,0,0,.76.166,5.194,5.194,0,0,0,.974-.043c.2-.027.453-.16.386-.347a.382.382,0,0,0-.139-.155,2.173,2.173,0,0,1-.811-1.686c0-.93.609-1.825.42-2.735-.117-.564-.533-1.111-.358-1.661.4-1.239.444-2.571.782-3.827l.331-1.232c.2-.733.394-1.466.556-2.207a24.175,24.175,0,0,0,.533-6.252,8.759,8.759,0,0,1,.195-1.026c.032-.385-.007-.772,0-1.158A41.338,41.338,0,0,0,254.787,478.459Z" transform="translate(-229.527 -399.434)"/><circle class="k" cx="1.29" cy="1.29" r="1.29" transform="translate(87.327 118)"/><line class="c" x2="53.866" transform="translate(114.177 140.455)"/><line class="c" x2="25.453" transform="translate(82.015 140.455)"/><line class="l" y1="14.682" transform="translate(94.934 126.01)"/><circle class="b" cx="2.076" cy="2.076" r="2.076" transform="translate(92.858 123.934)"/><path class="b" d="M603.032,754.654s-.3-6.38-6.377-5.638" transform="translate(-508.098 -619.595)"/><path class="b" d="M864.27,663c-5.383,8.255-3.908,18.753-3.908,18.753s10.2-2.885,15.584-11.139,3.908-18.753,3.908-18.753S869.653,654.742,864.27,663Z" transform="translate(-719.624 -541.655)"/><path class="d" d="M768.29,691.117s-.131-.021-.372-.07c-.192-.039-.457-.095-.781-.171-2.891-.682-10.577-2.986-15.6-9.044-6.29-7.586-6.025-18.185-6.025-18.185s9.617,1.563,15.954,8.375q.412.439.8.91c5.473,6.6,5.983,15.482,6.023,17.677C768.294,690.939,768.29,691.117,768.29,691.117Z" transform="translate(-627.58 -551.119)"/><path class="c" d="M777.159,663c5.383,8.255,3.908,18.753,3.908,18.753s-10.2-2.885-15.584-11.139-3.908-18.753-3.908-18.753S771.776,654.742,777.159,663Z" transform="translate(-640.328 -541.655)"/><path class="h" d="M832.726,724.68c-.142.171-.268.318-.371.438-.229.261-.358.4-.358.4s-.157-.2-.422-.569c-1.454-2.027-6.131-9.234-5.77-17.559q.029-.655.1-1.3.412.439.8.91C832.175,713.6,832.685,722.485,832.726,724.68Z" transform="translate(-692.017 -585.189)"/><path class="d" d="M844.675,641.964c-.425,9.845-7.734,17.525-7.734,17.525s-6.619-8.282-6.193-18.127,7.734-17.525,7.734-17.525S845.1,632.118,844.675,641.964Z" transform="translate(-695.986 -519.163)"/><line class="c" y1="34.972" x2="1.607" transform="translate(140.956 105.075)"/></g></svg>