<svg xmlns="http://www.w3.org/2000/svg" xmlns:xlink="http://www.w3.org/1999/xlink" width="165.875" height="131.288" viewBox="0 0 165.875 131.288"><defs><style>.a{opacity:0.5;}.b{fill:url(#a);}.c{fill:#f2f2f2;}.d{fill:#cfb97f;}.e{fill:#e0e0e0;}.f{fill:#fff;}.g{fill:#535461;}.h{opacity:0.7;}.i{fill:url(#d);}.j{fill:#fdb797;}.k{fill:#4d8af0;}.l{opacity:0.05;}.m{opacity:0.1;}.n{fill:#f55f44;}.o{fill:#333;}</style><linearGradient id="a" x1="0.5" y1="1" x2="0.5" gradientUnits="objectBoundingBox"><stop offset="0" stop-color="gray" stop-opacity="0.251"/><stop offset="0.54" stop-color="gray" stop-opacity="0.122"/><stop offset="1" stop-color="gray" stop-opacity="0.102"/></linearGradient><linearGradient id="d" x1="0.5" x2="0.5" xlink:href="#a"/></defs><g class="a" transform="translate(9.213)"><rect class="b" width="58.872" height="88.991" rx="4.5"/></g><rect class="c" width="57.362" height="87.192" rx="4.5" transform="translate(9.967 0.653)"/><g class="a" transform="translate(15.704 16.716)"><rect class="d" width="11.472" height="10.326" rx="4.5"/></g><rect class="e" width="30.976" height="1.148" rx="0.574" transform="translate(30.618 16.716)"/><rect class="e" width="25.749" height="1.148" rx="0.574" transform="translate(30.618 20.157)"/><g class="a" transform="translate(15.704 32.777)"><rect class="d" width="11.472" height="10.326" rx="4.5"/></g><rect class="e" width="30.976" height="1.148" rx="0.574" transform="translate(30.618 32.777)"/><rect class="e" width="30.976" height="1.148" rx="0.574" transform="translate(30.618 36.218)"/><g class="a" transform="translate(15.704 48.838)"><rect class="d" width="11.472" height="10.326" rx="4.5"/></g><rect class="e" width="30.976" height="1.148" rx="0.574" transform="translate(30.618 48.838)"/><rect class="e" width="3.443" height="1.148" rx="0.574" transform="translate(30.618 52.281)"/><g class="a" transform="translate(45.846 28.653)"><rect class="b" width="57.989" height="52.309" rx="4.5"/></g><rect class="f" width="56.295" height="50.666" rx="4.5" transform="translate(46.743 29.178)"/><g class="a" transform="translate(52.27 40.064)"><rect class="d" width="12.095" height="10.886" rx="4.5"/></g><rect class="e" width="32.657" height="1.21" rx="0.605" transform="translate(67.995 40.064)"/><rect class="e" width="32.657" height="1.21" rx="0.605" transform="translate(67.995 43.693)"/><rect class="e" width="49.592" height="1.21" rx="0.605" transform="translate(51.06 56.862)"/><rect class="e" width="49.592" height="1.21" rx="0.605" transform="translate(51.06 60.492)"/><rect class="e" width="49.592" height="1.21" rx="0.605" transform="translate(51.06 65.329)"/><rect class="e" width="37.496" height="1.21" rx="0.605" transform="translate(51.06 68.958)"/><g class="a" transform="translate(0 45.098)"><path class="b" d="M234.237,338h0l.206-.919-.289.9a89.812,89.812,0,0,0-23.032-3.106C155.07,334.541,129,384.08,129,384.08l53.119,28.026s6.515-20.2,29.655-19.546a39.823,39.823,0,0,1,4.754.416l-7.04,21.928a3.909,3.909,0,1,0,6.528,4.3h0v-.011a3.886,3.886,0,0,0,.576-1.972,3.345,3.345,0,0,0-.012-.352l5.089-22.74A31.222,31.222,0,0,1,241.423,412.1l53.452-26.721S274.8,349.016,234.237,338Z" transform="translate(-129 -334.871)"/></g><path class="d" d="M216.076,337.993C160.739,337.67,135,386.574,135,386.574l52.443,27.665s6.434-19.947,29.278-19.3a39.3,39.3,0,0,1,4.805.426l17.366-54.279A88.669,88.669,0,0,0,216.076,337.993Z" transform="translate(-133.943 -292.344)"/><path class="e" d="M643.746,355.54,626.38,409.824A30.971,30.971,0,0,1,650.851,428.7l52.765-26.378S683.79,366.415,643.746,355.54Z" transform="translate(-538.797 -306.802)"/><path class="g" d="M589.9,429.149l17.63-78.769L582.9,427.213a3.86,3.86,0,1,0,6.443,4.242h0v-.011a3.836,3.836,0,0,0,.569-1.946A2.09,2.09,0,0,0,589.9,429.149Z" transform="translate(-502.377 -302.551)"/><g class="h" transform="translate(76.328 10.264)"><path class="i" d="M580.037,172.342l-.461-.086.91-3.346c1.433-10.741-3.981-11.831-6.012-11.868a6.677,6.677,0,0,0-.713-.217v-1.268a6.73,6.73,0,0,0,5.027-5.434h.018c.322,0,.585-.491.585-1.1a1.522,1.522,0,0,0-.255-.905q.035-.352.035-.7a6.994,6.994,0,0,0-2.171-5.07,4.509,4.509,0,0,0-.5-1.335c-.5-.88-1.328-1.793-.99-2.745l-2.189.225-.021-1.442c-.683.123-.97.914-1.375,1.477-.975,1.356-2.932,1.544-4.226,2.6-.44.352-1.43,1.451-1.241,2.168a6.984,6.984,0,0,0-1.335,4.115q0,.352.035.7a1.52,1.52,0,0,0-.255.905c0,.606.262,1.1.585,1.1h.018a6.73,6.73,0,0,0,5.027,5.434v1.268a6.68,6.68,0,0,0-.713.217c-2.03.037-7.445,1.12-6.012,11.868l.91,3.346-.216.041a2.5,2.5,0,0,0-2,2.911l3.6,19.227a.755.755,0,0,0,.88.6l.632-.118v.373a2.1,2.1,0,0,0-1.169,1.881v.238h4.24v-.238a2.1,2.1,0,0,0-1.023-1.8v-.836l.578-.107a.755.755,0,0,0,.6-.88l-3.37-18.063h9.345l-3.367,18.065a.755.755,0,0,0,.6.88l.578.107v.836a2.1,2.1,0,0,0-1.023,1.8v.238h4.24v-.238a2.1,2.1,0,0,0-1.169-1.881v-.373l.632.118a.755.755,0,0,0,.88-.6l3.635-19.468a2.245,2.245,0,0,0-1.8-2.62Z" transform="translate(-562.467 -137.05)"/></g><rect class="j" width="1.969" height="2.673" transform="translate(81.656 65.681)"/><rect class="j" width="1.969" height="2.673" transform="translate(88.407 65.681)"/><rect class="k" width="12.941" height="4.642" transform="translate(79.546 43.74)"/><g class="l" transform="translate(79.546 43.74)"><rect width="12.941" height="4.642"/></g><path class="m" d="M580.74,328.654a49.423,49.423,0,0,0,6.469,1.125,49.426,49.426,0,0,0,6.47-1.125v-.7H580.74Z" transform="translate(-501.194 -284.071)"/><path class="n" d="M593.679,264.685a49.429,49.429,0,0,1-6.47,1.125,49.426,49.426,0,0,1-6.469-1.125v-7.736a6.469,6.469,0,0,1,6.469-6.469h0a6.47,6.47,0,0,1,6.47,6.469Z" transform="translate(-501.194 -220.242)"/><path class="j" d="M479.7,153.34h3.094v3.723a1.34,1.34,0,0,1-1.34,1.34h-.412a1.34,1.34,0,0,1-1.34-1.34V153.34Z" transform="translate(-395.23 -126.339)"/><path class="k" d="M572.364,356.222l-2.773.518a.91.91,0,0,1-1.057-.727l-3.307-17.721a3,3,0,0,1,2.4-3.506l.715-.134a.91.91,0,0,1,1.057.727l3.7,19.78a.91.91,0,0,1-.734,1.064Z" transform="translate(-488.37 -289.58)"/><path class="k" d="M625.413,356.23l2.773.518a.91.91,0,0,0,1.056-.727L632.606,338a2.7,2.7,0,0,0-2.162-3.154l-1.011-.188a.91.91,0,0,0-1.057.727l-3.7,19.78a.91.91,0,0,0,.734,1.062Z" transform="translate(-537.383 -289.588)"/><path class="m" d="M608.7,235.1a6.474,6.474,0,0,0,3.094,0v-2.2H608.7Z" transform="translate(-524.231 -205.758)"/><circle class="o" cx="6.751" cy="6.751" r="6.751" transform="translate(79.264 14.624)"/><circle class="j" cx="6.469" cy="6.469" r="6.469" transform="translate(79.546 16.454)"/><path class="o" d="M587.509,147.455c1.245-1.016,3.127-1.2,4.064-2.5.389-.542.666-1.3,1.322-1.423l.019,1.388,2.113-.217c-.326.916.472,1.8.953,2.641a4.344,4.344,0,0,1,.562,2.044c-.731.438-1.638-.041-2.451-.3a8.862,8.862,0,0,0-2.465-.3,5.114,5.114,0,0,0-1.271.07,6.41,6.41,0,0,0-1.057.386c-.56.234-2.33,1.12-2.849.549C585.864,149.152,587.028,147.848,587.509,147.455Z" transform="translate(-505.765 -132.125)"/><path class="m" d="M590.512,172.969a2.968,2.968,0,0,0,1.145.352,10.079,10.079,0,0,0,4.911-.551,2.4,2.4,0,0,0,1.548,1.308,7.192,7.192,0,0,0,2.074.232.767.767,0,0,0,.445-.085c.312-.21.16-.692-.021-1.02l-.9-1.634a4.841,4.841,0,0,0-.953-1.34,3.962,3.962,0,0,0-1.88-.808,10.609,10.609,0,0,0-4.828.16C590.366,170.03,588.2,171.571,590.512,172.969Z" transform="translate(-508.416 -153.291)"/><path class="o" d="M590.512,172.169a2.968,2.968,0,0,0,1.145.352,10.079,10.079,0,0,0,4.911-.551,2.4,2.4,0,0,0,1.548,1.308,7.191,7.191,0,0,0,2.074.232.768.768,0,0,0,.445-.085c.312-.21.16-.692-.021-1.02l-.9-1.634a4.842,4.842,0,0,0-.953-1.34,3.961,3.961,0,0,0-1.88-.808,10.608,10.608,0,0,0-4.828.16C590.366,169.227,588.2,170.773,590.512,172.169Z" transform="translate(-508.416 -152.632)"/><ellipse class="j" cx="0.563" cy="1.055" rx="0.563" ry="1.055" transform="translate(91.853 21.868)"/><ellipse class="j" cx="0.563" cy="1.055" rx="0.563" ry="1.055" transform="translate(79.053 21.868)"/><path class="n" d="M577.372,252.752s-8.184-1.275-6.5,11.384l.984,3.629,2.818-.113s-1.828-4.226-.7-7.033S577.372,252.752,577.372,252.752Z" transform="translate(-492.878 -222.085)"/><path class="n" d="M626.12,252.752s8.185-1.275,6.5,11.384l-.984,3.629-2.818-.113s1.828-4.226.7-7.033S626.12,252.752,626.12,252.752Z" transform="translate(-538.583 -222.085)"/><circle class="j" cx="1.548" cy="1.548" r="1.548" transform="translate(78.983 44.582)"/><circle class="j" cx="1.548" cy="1.548" r="1.548" transform="translate(90.235 44.582)"/><path class="o" d="M459.1,381.79h.544a1.761,1.761,0,0,1,1.761,1.761v.482H457.33v-.482a1.761,1.761,0,0,1,1.768-1.761Z" transform="translate(-376.8 -314.561)"/><path class="o" d="M498.238,381.79h.544a1.761,1.761,0,0,1,1.761,1.761v.482H496.47v-.482a1.761,1.761,0,0,1,1.768-1.761Z" transform="translate(-409.047 -314.561)"/><path class="m" d="M587.98,291.21s-.563,2.953.423,4.226" transform="translate(-507.027 -253.8)"/><path class="m" d="M644.263,291.21s.564,2.953-.423,4.226" transform="translate(-553.183 -253.8)"/></svg>