<svg xmlns="http://www.w3.org/2000/svg" width="205.961" height="133.094" viewBox="0 0 205.961 133.094"><defs><style>.a{fill:#f2f2f2;}.b,.c{fill:none;stroke-miterlimit:10;}.b{stroke:#f2f2f2;}.c{stroke:#3f3d56;}.d{fill:#cfb97f;}.e{fill:#ffc1c7;}.f{opacity:0.1;}.g{fill:#3f3d56;}.h{fill:#2f2e41;}</style></defs><g transform="translate(-0.195 -0.035)"><path class="a" d="M801.5,363.748q.205-.181.4-.371c1.54-1.5,4.3-4.607,5.611-6.1a.987.987,0,0,0-.177-1.461l-2.542-1.775.153-.078-1.824-2.638c.2-4.03-8.377-15-10.524-16.637s5.038-14.593,5.038-14.593a6.174,6.174,0,0,0,2.652-2.273c.041.007.082.015.124.021l.919-.085a1.634,1.634,0,0,0,1.48-1.5,29.311,29.311,0,0,0,.1-3.262,3.371,3.371,0,0,1,1.416-2.391c1.6-1.057,11.891-27.5,7.157-32.336,0,0-2.017-3.015-3.157-3.384a1.255,1.255,0,0,0-.5-1.28l-.328-1.035s-.441.194-1.1.5a19,19,0,0,1-1.373-2.369c.228-.988,3.642-5.34.58-8.35-3.107-3.053-4.642-5.125-6.957-4.3s-7.754,2.058-7.595,4-.4,2.7.6,3.5,1.037.731,1.037.731h0a5.992,5.992,0,0,0,6.775,7.4,16.693,16.693,0,0,1,1.144,2.779,2.769,2.769,0,0,0-.276,1.774,46.034,46.034,0,0,0-2.84,4.8c-.679,1.31-1.935,4.084-3.311,7.04-2.417-.78-4.6-1.568-4.6-1.568s-.127.149-.326.394a13.93,13.93,0,0,0-2.071-.195l-5.835-5.876a.483.483,0,0,0-.639-.08l-5.128,2.431a.613.613,0,0,0-.013.889l5.081,5.394c-.4.428.28.951,1.376,1.461l1.335,1.417a.474.474,0,0,0,.727.019l.452-.477c.826.272,1.643.513,2.3.7-.049.238-.014.412.14.488.28.137,1.765.963,3.792,2a15.426,15.426,0,0,1-1.993,3.154c-1.46,1.409-1.425,5.3-1.35,6.824a6.126,6.126,0,0,0-1.1,2.264c-2.573,3.833-7.149,11.06-7.857,14.982a21.9,21.9,0,0,0-3.8,10.27c-.47,5.833-6.418,19.344-6.8,19.537-.057.029-.048.15.022.327-1.965.68,3.143,9.36,4.183,9.067.9-.255,2.27-4.88,2.268-6.3.031-.008.062-.014.093-.022,0,0,1.25-3.376,2.194-3.858s5.788-15.453,5.768-17.822a3.948,3.948,0,0,1,.845-1.745,6.533,6.533,0,0,0,2.585,3.8c6.864,4.584,11.539,18.855,12.394,19.132a.51.51,0,0,0,.152.016c.073,2.035.033,5.895-1.281,6.392a2.744,2.744,0,0,0-1.039.695" transform="translate(-629.946 -231.136)"/><path class="b" d="M1023.129,623.154a3.975,3.975,0,0,0-4.167.345c-1.783,1.358-2.055,4.015-1.384,6.154s2.074,3.956,3.172,5.909a15.32,15.32,0,0,1,2.181,8.627,9.4,9.4,0,0,1-4.445,7.449c-2.437,1.367-5.389,1.315-8.182,1.226" transform="translate(-822.383 -520.256)"/><ellipse class="a" cx="1.47" cy="3.027" rx="1.47" ry="3.027" transform="translate(199.186 103.898) rotate(-59.77)"/><ellipse class="a" cx="1.47" cy="3.027" rx="1.47" ry="3.027" transform="translate(196.401 113.486) rotate(-59.77)"/><ellipse class="a" cx="1.47" cy="3.027" rx="1.47" ry="3.027" transform="translate(190.835 112.044) rotate(-59.77)"/><ellipse class="a" cx="1.47" cy="3.027" rx="1.47" ry="3.027" transform="translate(194.215 123.422) rotate(-59.77)"/><ellipse class="a" cx="1.47" cy="3.027" rx="1.47" ry="3.027" transform="translate(199.445 126.47) rotate(-59.77)"/><path class="c" d="M977.264,613.28a3.975,3.975,0,0,0-3.426,2.4c-.857,2.071.246,4.5,1.9,6.014s3.783,2.373,5.716,3.508a15.32,15.32,0,0,1,6.228,6.355,9.4,9.4,0,0,1-.09,8.674c-1.417,2.408-3.994,3.849-6.452,5.179" transform="translate(-793.249 -512.775)"/><ellipse class="d" cx="3.027" cy="1.47" rx="3.027" ry="1.47" transform="translate(183.171 99.215)"/><ellipse class="d" cx="3.027" cy="1.47" rx="3.027" ry="1.47" transform="translate(185.593 108.901)"/><ellipse class="d" cx="3.027" cy="1.47" rx="3.027" ry="1.47" transform="translate(180.058 110.458)"/><ellipse class="d" cx="3.027" cy="1.47" rx="3.027" ry="1.47" transform="translate(188.706 118.587)"/><ellipse class="d" cx="3.027" cy="1.47" rx="3.027" ry="1.47" transform="translate(194.76 118.587)"/><line class="c" x2="85.514" transform="translate(115.299 132.612)"/><path class="e" d="M729.876,402.888s-9.511,1.5-8.342-.394,7.393-3.791,8.535-3.4S729.876,402.888,729.876,402.888Z" transform="translate(-593.47 -343.007)"/><path class="f" d="M729.876,402.888s-9.511,1.5-8.342-.394,7.393-3.791,8.535-3.4S729.876,402.888,729.876,402.888Z" transform="translate(-593.47 -343.007)"/><path class="d" d="M765.479,313.892s-6.144,1.648-3.3,6.893c0,0,4.646,9.141,2.7,9.741s-10.94.3-10.94.3-2.1,5.1-1.049,5.245,17.833,3.6,19.631.3,0-17.533,0-17.533S769.975,311.794,765.479,313.892Z" transform="translate(-618.165 -275.218)"/><path class="f" d="M765.479,313.892s-6.144,1.648-3.3,6.893c0,0,4.646,9.141,2.7,9.741s-10.94.3-10.94.3-2.1,5.1-1.049,5.245,17.833,3.6,19.631.3,0-17.533,0-17.533S769.975,311.794,765.479,313.892Z" transform="translate(-618.165 -275.218)"/><path class="g" d="M898.412,676.516s2.7,6.444,1.2,7.643-1.2,3.447-.15,3.447,3.447-2.1,4.8-4.646c1-1.9,2.675-5.708,3.461-7.529a.987.987,0,0,0-.618-1.335l-4.342-1.327Z" transform="translate(-733.714 -559.917)"/><path class="g" d="M718.811,728.364s-5.695,4.646-8.692,4.5-3.447,3,0,3.447,13.787.6,14.686,0,.6-6.893,0-7.043S718.811,728.364,718.811,728.364Z" transform="translate(-582.587 -603.972)"/><path class="h" d="M804.581,481.455s0,4.646-2.4,6.594c0,0-2.847,14.536-.3,15.435s14.087,8.692,15.136,12.588l2.548,1.948s-4.646,4.646-5.545,4.646-9.741-12.138-17.683-14.386c0,0-4.945-1.2-4.8-7.643s5.994-23.528,5.994-23.528h6.744Z" transform="translate(-649.025 -404.868)"/><path class="f" d="M804.581,481.455s0,4.646-2.4,6.594c0,0-2.847,14.536-.3,15.435s14.087,8.692,15.136,12.588l2.548,1.948s-4.646,4.646-5.545,4.646-9.741-12.138-17.683-14.386c0,0-4.945-1.2-4.8-7.643s5.994-23.528,5.994-23.528h6.744Z" transform="translate(-649.025 -404.868)"/><path class="h" d="M761.347,472.014s-4.5,14.087-3.746,19.631a21.9,21.9,0,0,0-.45,10.94c1.349,5.695-.15,20.381-.45,20.68s3.3,3.447,7.193.9c0,0,.15-3.6.9-4.346s.749-16.484,0-18.732,8.092-18.582,8.092-18.582,4.8-4.346,3-6.594.15-6.744.15-6.744l-13.637.9Z" transform="translate(-621.376 -398.574)"/><circle class="e" cx="5.994" cy="5.994" r="5.994" transform="translate(131.879 27.135)"/><path class="e" d="M775.826,275.672s4.8,5.545,5.994,5.695-3.9,6.594-3.9,6.594-2.847-4.8-4.8-5.245S775.826,275.672,775.826,275.672Z" transform="translate(-634.056 -245.241)"/><path class="g" d="M797.683,298.381l-.749-1.049s-5.163,4.6-5.354,5.823a2.643,2.643,0,0,0,.409,1.969l3-1.349,1.5-3Z" transform="translate(-649.02 -262.405)"/><path class="g" d="M775.417,480.3s-1.2,3.6-.3,3.447.9-2.1,1.948-2.1S778.714,480,778.714,480Z" transform="translate(-635.746 -407.156)"/><path class="g" d="M814.66,482.885s3.447,7.493,7.793,6.744l.849-.364a1.634,1.634,0,0,0,.946-1.883c-.414-1.726-1.175-4.5-1.794-4.5Z" transform="translate(-667.346 -409.445)"/><path class="h" d="M729.136,251.243a1.823,1.823,0,0,1,2.535-1.126c1.948.749,3.6,2.4,4.046,1.2s1.6-2.3,2.373-1.376,4.3,2.649,4.145,1.75,1.873-6.219-2.023-8.167-5.994-3.447-7.942-1.948-6.744,4.346-5.994,6.144.45,2.7,1.648,3.147S729.136,251.243,729.136,251.243Z" transform="translate(-597.244 -217.738)"/><path class="d" d="M782.23,302.547a1.179,1.179,0,0,0-1.5-1.049c-1.349.3-4.945,6.294-4.945,6.294a42.4,42.4,0,0,0-1.349,5.844c-.6,3.6-1.8,16.784-3,19.032s1.049,7.493,1.049,7.493,1.349-1.5,5.695-.6,10.04,1.8,10.49,1.349-.45-1.648.749-3.147,2.847-29.822-3.147-32.969C786.276,304.8,783.429,302.547,782.23,302.547Z" transform="translate(-632.818 -265.672)"/><path class="f" d="M771.922,326.888s-6.144,1.648-3.3,6.893c0,0,4.646,9.141,2.7,9.741s-10.94.3-10.94.3-.974,3.222.075,3.372,16.709,5.47,18.507,2.173,0-17.533,0-17.533S776.418,324.79,771.922,326.888Z" transform="translate(-624.008 -285.517)"/><path class="h" d="M689.925,387.756l9.96,5.471a.474.474,0,0,0,.7-.206l2.44-5.1a.637.637,0,0,0-.326-.764l-8.269-4.262a.483.483,0,0,0-.633.121l-4.131,3.892a.613.613,0,0,0,.262.849Z" transform="translate(-568.231 -330.153)"/><path class="g" d="M589.51,258.632l9.338,5.337,2.485-4.478-8.01-4.356Z" transform="translate(-467.152 -201.783)"/><ellipse class="a" cx="0.117" cy="0.137" rx="0.117" ry="0.137" transform="translate(130.105 55.201) rotate(-39.842)"/><ellipse class="a" cx="0.078" cy="0.092" rx="0.078" ry="0.092" transform="translate(126.698 59.793) rotate(-39.842)"/><path class="e" d="M730.694,413.757s-9.606.673-8.277-1.115,7.694-3.137,8.8-2.644S730.694,413.757,730.694,413.757Z" transform="translate(-594.149 -351.605)"/><path class="d" d="M768.367,322.556s-6.144,1.648-3.3,6.893c0,0,4.646,9.141,2.7,9.741s-10.94.3-10.94.3-2.1,5.1-1.049,5.245,17.833,3.6,19.631.3,0-17.533,0-17.533S772.863,320.458,768.367,322.556Z" transform="translate(-620.453 -282.084)"/><rect class="a" width="53.971" height="26.81" rx="13.405" transform="translate(54.911 33.882)"/><ellipse class="d" cx="3.5" cy="3" rx="3.5" ry="3" transform="translate(0.195 2.535)"/><ellipse class="c" cx="3.5" cy="4" rx="3.5" ry="4" transform="translate(1.195 0.535)"/><ellipse class="a" cx="4" cy="3.5" rx="4" ry="3.5" transform="translate(42.195 46.535)"/><ellipse class="c" cx="3.5" cy="4" rx="3.5" ry="4" transform="translate(44.195 44.535)"/><ellipse class="d" cx="3.5" cy="3" rx="3.5" ry="3" transform="translate(70.195 20.535)"/><circle class="c" cx="3.5" cy="3.5" r="3.5" transform="translate(71.195 18.535)"/><rect class="d" width="53.971" height="26.81" rx="13.405" transform="translate(8.037 13.467)"/><rect class="c" width="53.971" height="26.81" rx="13.405" transform="translate(11.191 11.189)"/><rect class="c" width="53.971" height="26.81" rx="13.405" transform="translate(58.065 31.604)"/></g></svg>