<svg xmlns="http://www.w3.org/2000/svg" width="166.77" height="41.693" viewBox="0 0 166.77 41.693"><defs><style>.a{fill:rgba(255,255,255,0.2);}.b,.d{fill:#fff;}.c,.d{stroke:none;}</style></defs><g transform="translate(-12 -39)"><g class="a" transform="translate(12 39)"><path class="c" d="M 156.0106811523438 41.19250106811523 L 0.5000097751617432 41.19250106811523 L 0.5000097751617432 10.75935649871826 C 0.5000097751617432 5.102335929870605 5.102343082427979 0.5000024437904358 10.75936412811279 0.5000024437904358 L 156.0106811523438 0.5000024437904358 C 161.6676940917969 0.5000024437904358 166.2700347900391 5.102335929870605 166.2700347900391 10.75935649871826 L 166.2700347900391 30.93314743041992 C 166.2700347900391 36.59016799926758 161.6676940917969 41.19250106811523 156.0106811523438 41.19250106811523 Z"/><path class="d" d="M 10.75935363769531 0.9999923706054688 C 5.378036499023438 0.9999923706054688 0.9999847412109375 5.378036499023438 0.9999847412109375 10.75936126708984 L 0.9999847412109375 40.69251251220703 L 156.0106658935547 40.69251251220703 C 161.3919830322266 40.69251251220703 165.7700042724609 36.31446838378906 165.7700042724609 30.93314361572266 L 165.7700042724609 10.75936126708984 C 165.7700042724609 5.378036499023438 161.3919830322266 0.9999923706054688 156.0106658935547 0.9999923706054688 L 10.75935363769531 0.9999923706054688 M 10.75935363769531 -7.62939453125e-06 L 156.0106658935547 -7.62939453125e-06 C 161.9528503417969 -7.62939453125e-06 166.7700042724609 4.817123413085938 166.7700042724609 10.75936126708984 L 166.7700042724609 30.93314361572266 C 166.7700042724609 36.87538146972656 161.9528503417969 41.69251251220703 156.0106658935547 41.69251251220703 L -1.52587890625e-05 41.69251251220703 L -1.52587890625e-05 10.75936126708984 C -1.52587890625e-05 4.817123413085938 4.817123413085938 -7.62939453125e-06 10.75935363769531 -7.62939453125e-06 Z"/></g><g transform="translate(29.273 52.668)"><path class="b" d="M-57.91-13.34h-1.68V0h1.68Zm5.18,4.12V0h1.52V-5.62a2.177,2.177,0,0,1,.6-1.68,2.294,2.294,0,0,1,1.76-.78,1.748,1.748,0,0,1,1.44.62,2.525,2.525,0,0,1,.34,1.58V0h1.52V-6.22a2.994,2.994,0,0,0-.78-2.46,3.209,3.209,0,0,0-2.14-.76,3.151,3.151,0,0,0-2.74,1.52v-1.3ZM-34.77-6.7c-.08-1.74-1.26-2.74-3.22-2.74-1.94,0-3.24,1.08-3.24,2.68,0,1.4.9,2.24,2.9,2.78,1.58.4,2.1.8,2.1,1.6,0,.82-.68,1.36-1.72,1.36a1.7,1.7,0,0,1-1.94-1.6h-1.5C-41.23-.76-40.05.22-37.95.22c1.96,0,3.28-1.08,3.28-2.68a2.575,2.575,0,0,0-.74-1.8,4.734,4.734,0,0,0-2.24-1.06c-1.66-.46-2.06-.76-2.06-1.56s.64-1.32,1.66-1.32c1.06,0,1.76.54,1.76,1.4v.1Zm5.96-2.52h-1.52V0h1.52Zm-.74-3.58a.957.957,0,0,0-.98.98.957.957,0,0,0,.98.98.965.965,0,0,0,.98-.96A.974.974,0,0,0-29.55-12.8Zm12.7,4.98a3.954,3.954,0,0,0-3.3-1.62c-2.5,0-4.34,2.08-4.34,4.88S-22.69.22-20.15.22a3.772,3.772,0,0,0,3.3-1.8V0h1.52V-13.34h-1.52Zm-2.98-.26c1.76,0,2.98,1.42,2.98,3.5A3.2,3.2,0,0,1-19.93-1.1c-1.74,0-2.96-1.42-2.96-3.44C-22.89-6.64-21.65-8.08-19.83-8.08ZM-1.71-4.12c.02-.22.02-.48.02-.6A4.585,4.585,0,0,0-6.37-9.44a4.578,4.578,0,0,0-4.64,4.86A4.575,4.575,0,0,0-6.31.22a4.514,4.514,0,0,0,4.1-2.48l-1.34-.5A3.192,3.192,0,0,1-6.31-1.18,3,3,0,0,1-8.79-2.44a2.874,2.874,0,0,1-.6-1.68ZM-9.37-5.24A3.66,3.66,0,0,1-8.85-6.8,2.962,2.962,0,0,1-6.37-8.08,3.164,3.164,0,0,1-3.83-6.82a2.856,2.856,0,0,1,.52,1.58ZM13.31-3.08,10.45-13.34H8.87L5.91-3.12,2.87-13.34H1.09L5.17,0H6.65L9.61-10.48,12.55,0h1.48l4.08-13.34H16.37Zm9.94-10.26H21.73V0h1.52V-5.4a2.412,2.412,0,0,1,.6-1.86,2.347,2.347,0,0,1,1.8-.82c1.1,0,1.72.7,1.72,1.96V0h1.52V-6.2a3.164,3.164,0,0,0-.72-2.4,3.077,3.077,0,0,0-2.14-.84,3.386,3.386,0,0,0-2.78,1.5ZM40.85-7.7a3.858,3.858,0,0,0-3.32-1.74c-2.54,0-4.38,2.04-4.38,4.86,0,2.8,1.8,4.8,4.34,4.8a3.819,3.819,0,0,0,3.36-2V0h1.52V-9.22H40.85Zm-3.1-.38A3.109,3.109,0,0,1,40.87-4.7a3.41,3.41,0,0,1-3.16,3.6,3.161,3.161,0,0,1-2.96-3.44,4.207,4.207,0,0,1,.76-2.44A2.511,2.511,0,0,1,37.75-8.08Zm11.24.2h1.4V-9.22h-1.4v-2.9H47.47v2.9H46.19v1.34h1.28v6.44c0,1.02.44,1.44,1.5,1.44h1.42V-1.32h-.7c-.54,0-.7-.12-.7-.56ZM60.33-6.7c-.08-1.74-1.26-2.74-3.22-2.74-1.94,0-3.24,1.08-3.24,2.68,0,1.4.9,2.24,2.9,2.78,1.58.4,2.1.8,2.1,1.6,0,.82-.68,1.36-1.72,1.36a1.7,1.7,0,0,1-1.94-1.6h-1.5C53.87-.76,55.05.22,57.15.22c1.96,0,3.28-1.08,3.28-2.68a2.575,2.575,0,0,0-.74-1.8,4.734,4.734,0,0,0-2.24-1.06c-1.66-.46-2.06-.76-2.06-1.56s.64-1.32,1.66-1.32c1.06,0,1.76.54,1.76,1.4v.1Z" transform="translate(61 13)"/></g></g></svg>