<svg xmlns="http://www.w3.org/2000/svg" width="114" height="28.5" viewBox="0 0 114 28.5"><defs><style>.a{fill:none;}.b,.d{fill:#fff;}.c,.d{stroke:none;}</style></defs><g transform="translate(-12 -39)"><g class="a" transform="translate(12 39)"><path class="c" d="M7.355,0h99.29A7.355,7.355,0,0,1,114,7.355v13.79a7.355,7.355,0,0,1-7.355,7.355H0V7.355A7.355,7.355,0,0,1,7.355,0Z"/><path class="d" d="M 7.354827880859375 1 C 3.85076904296875 1 1 3.85076904296875 1 7.354846954345703 L 1 27.5 L 106.6451568603516 27.5 C 110.1492309570312 27.5 113 24.64923095703125 113 21.1451530456543 L 113 7.354846954345703 C 113 3.85076904296875 110.1492309570312 1 106.6451568603516 1 L 7.354827880859375 1 M 7.354827880859375 0 L 106.6451568603516 0 C 110.7071228027344 0 114 3.292877197265625 114 7.354846954345703 L 114 21.1451530456543 C 114 25.20712280273438 110.7071228027344 28.5 106.6451568603516 28.5 L 0 28.5 L 0 7.354846954345703 C 0 3.292877197265625 3.292877197265625 0 7.354827880859375 0 Z"/></g><path class="b" d="M-40.537-9.338h-1.176V0h1.176Zm3.626,2.884V0h1.064V-3.934a1.524,1.524,0,0,1,.42-1.176,1.606,1.606,0,0,1,1.232-.546,1.224,1.224,0,0,1,1.008.434,1.768,1.768,0,0,1,.238,1.106V0h1.064V-4.354a2.1,2.1,0,0,0-.546-1.722,2.246,2.246,0,0,0-1.5-.532,2.205,2.205,0,0,0-1.918,1.064v-.91ZM-24.339-4.69a1.971,1.971,0,0,0-2.254-1.918c-1.358,0-2.268.756-2.268,1.876,0,.98.63,1.568,2.03,1.946,1.106.28,1.47.56,1.47,1.12s-.476.952-1.2.952a1.192,1.192,0,0,1-1.358-1.12h-1.05c.112,1.3.938,1.988,2.408,1.988,1.372,0,2.3-.756,2.3-1.876a1.8,1.8,0,0,0-.518-1.26,3.314,3.314,0,0,0-1.568-.742c-1.162-.322-1.442-.532-1.442-1.092s.448-.924,1.162-.924c.742,0,1.232.378,1.232.98v.07Zm4.172-1.764h-1.064V0h1.064Zm-.518-2.506a.67.67,0,0,0-.686.686.67.67,0,0,0,.686.686A.675.675,0,0,0-20-8.26.682.682,0,0,0-20.685-8.96Zm8.89,3.486A2.768,2.768,0,0,0-14.1-6.608a3.154,3.154,0,0,0-3.038,3.416A3.076,3.076,0,0,0-14.1.154a2.64,2.64,0,0,0,2.31-1.26V0h1.064V-9.338h-1.064Zm-2.086-.182a2.18,2.18,0,0,1,2.086,2.45A2.241,2.241,0,0,1-13.951-.77a2.163,2.163,0,0,1-2.072-2.408A2.213,2.213,0,0,1-13.881-5.656ZM-1.2-2.884c.014-.154.014-.336.014-.42a3.209,3.209,0,0,0-3.276-3.3,3.2,3.2,0,0,0-3.248,3.4A3.2,3.2,0,0,0-4.417.154a3.16,3.16,0,0,0,2.87-1.736l-.938-.35A2.234,2.234,0,0,1-4.417-.826a2.1,2.1,0,0,1-1.736-.882,2.012,2.012,0,0,1-.42-1.176Zm-5.362-.784A2.562,2.562,0,0,1-6.195-4.76a2.074,2.074,0,0,1,1.736-.9,2.215,2.215,0,0,1,1.778.882,2,2,0,0,1,.364,1.106ZM9.317-2.156l-2-7.182H6.209L4.137-2.184,2.009-9.338H.763L3.619,0H4.655L6.727-7.336,8.785,0H9.821l2.856-9.338H11.459Zm6.958-7.182H15.211V0h1.064V-3.78a1.689,1.689,0,0,1,.42-1.3,1.643,1.643,0,0,1,1.26-.574c.77,0,1.2.49,1.2,1.372V0h1.064V-4.34a2.215,2.215,0,0,0-.5-1.68,2.154,2.154,0,0,0-1.5-.588,2.37,2.37,0,0,0-1.946,1.05ZM28.595-5.39a2.7,2.7,0,0,0-2.324-1.218,3.138,3.138,0,0,0-3.066,3.4A3.088,3.088,0,0,0,26.243.154a2.674,2.674,0,0,0,2.352-1.4V0h1.064V-6.454H28.595Zm-2.17-.266A2.177,2.177,0,0,1,28.609-3.29,2.387,2.387,0,0,1,26.4-.77a2.213,2.213,0,0,1-2.072-2.408,2.945,2.945,0,0,1,.532-1.708A1.757,1.757,0,0,1,26.425-5.656Zm7.868.14h.98v-.938h-.98v-2.03H33.229v2.03h-.9v.938h.9v4.508c0,.714.308,1.008,1.05,1.008h.994V-.924h-.49c-.378,0-.49-.084-.49-.392Zm7.938.826a1.971,1.971,0,0,0-2.254-1.918c-1.358,0-2.268.756-2.268,1.876,0,.98.63,1.568,2.03,1.946,1.106.28,1.47.56,1.47,1.12s-.476.952-1.2.952a1.192,1.192,0,0,1-1.358-1.12H37.6c.112,1.3.938,1.988,2.408,1.988,1.372,0,2.3-.756,2.3-1.876a1.8,1.8,0,0,0-.518-1.26,3.314,3.314,0,0,0-1.568-.742c-1.162-.322-1.442-.532-1.442-1.092s.448-.924,1.162-.924c.742,0,1.232.378,1.232.98v.07Z" transform="translate(66.807 57.343)"/></g></svg>