<svg xmlns="http://www.w3.org/2000/svg" width="19.187" height="19.187" viewBox="0 0 19.187 19.187"><defs><style>.a{fill:#ffd05d;}.b{fill:#fdc453;}.c{fill:#ffd77f;}.d{fill:#695342;}.e{fill:#f06669;}.f{fill:#e62728;}</style></defs><g transform="translate(-971.094 -258.658)"><g transform="translate(971.094 258.658)"><g transform="translate(0 0)"><circle class="a" cx="6.783" cy="6.783" r="6.783" transform="translate(0 9.593) rotate(-45)"/></g><g transform="translate(3.877 3.804)"><path class="b" d="M1029.075,306.451a6.784,6.784,0,0,1-9.265,9.436,6.784,6.784,0,1,0,9.265-9.436Z" transform="translate(-1019.81 -306.451)"/></g><g transform="translate(3.263 3.311)"><path class="c" d="M1012.564,307.256a6.3,6.3,0,0,1,11.29-3.839A6.3,6.3,0,1,0,1013.4,310.4,6.268,6.268,0,0,1,1012.564,307.256Z" transform="translate(-1012.095 -300.258)"/></g></g><g transform="translate(977.805 269.639)"><path class="d" d="M1055.409,396.643a2.9,2.9,0,0,0,5.766,0Z" transform="translate(-1055.409 -396.643)"/><path class="e" d="M1066.612,414.136a2.9,2.9,0,0,0,3.915.063l-.027-.062A4.786,4.786,0,0,0,1066.612,414.136Z" transform="translate(-1065.72 -412.355)"/></g><g transform="translate(975.559 265.069)"><path class="f" d="M1031.391,340.422s0-.007,0-.01a1.156,1.156,0,0,0-1.134-1.2,1,1,0,0,0-.962.753h0a1,1,0,0,0-.962-.753,1.156,1.156,0,0,0-1.134,1.2s0,.007,0,.01c0,.136,0,1.523,2.1,2.653h0C1031.391,341.945,1031.394,340.558,1031.391,340.422Z" transform="translate(-1027.198 -339.212)"/><path class="f" d="M1107.58,340.422s0-.007,0-.01a1.156,1.156,0,0,0-1.134-1.2,1,1,0,0,0-.962.753h0a1,1,0,0,0-.962-.753,1.156,1.156,0,0,0-1.134,1.2s0,.007,0,.01c0,.136,0,1.523,2.1,2.653h0C1107.581,341.945,1107.584,340.558,1107.58,340.422Z" transform="translate(-1097.324 -339.212)"/></g></g></svg>